name D:\school\WTK\thesis\model\3dpredictsim\Results\batch_windlass\Pog_s1_tmt_bCst_d05_k500_WL20_ig24_act_TTC.mot
datacolumns 128
datarows 4
range 0.56567050 0.59961073
endheader
time	pelvis_tilt	pelvis_list	pelvis_rotation	pelvis_tx	pelvis_ty	pelvis_tz	hip_flexion_l	hip_adduction_l	hip_rotation_l	hip_flexion_r	hip_adduction_r	hip_rotation_r	knee_angle_l	knee_angle_r	ankle_angle_l	ankle_angle_r	subtalar_angle_l	subtalar_angle_r	tmt_angle_l	tmt_angle_r	mtp_angle_l	mtp_angle_r	lumbar_extension	lumbar_bending	lumbar_rotation	arm_flex_l	arm_add_l	arm_rot_l	arm_flex_r	arm_add_r	arm_rot_r	elbow_flex_l	elbow_flex_r	pro_sup_l	pro_sup_r	glut_med1_l/activation	glut_med2_l/activation	glut_med3_l/activation	glut_min1_l/activation	glut_min2_l/activation	glut_min3_l/activation	semimem_l/activation	semiten_l/activation	bifemlh_l/activation	bifemsh_l/activation	sar_l/activation	add_long_l/activation	add_brev_l/activation	add_mag1_l/activation	add_mag2_l/activation	add_mag3_l/activation	tfl_l/activation	pect_l/activation	grac_l/activation	glut_max1_l/activation	glut_max2_l/activation	glut_max3_l/activation	iliacus_l/activation	psoas_l/activation	quad_fem_l/activation	gem_l/activation	peri_l/activation	rect_fem_l/activation	vas_med_l/activation	vas_int_l/activation	vas_lat_l/activation	med_gas_l/activation	lat_gas_l/activation	soleus_l/activation	tib_post_l/activation	flex_dig_l/activation	flex_hal_l/activation	tib_ant_l/activation	per_brev_l/activation	per_long_l/activation	per_tert_l/activation	ext_dig_l/activation	ext_hal_l/activation	ercspn_l/activation	intobl_l/activation	extobl_l/activation	glut_med1_r/activation	glut_med2_r/activation	glut_med3_r/activation	glut_min1_r/activation	glut_min2_r/activation	glut_min3_r/activation	semimem_r/activation	semiten_r/activation	bifemlh_r/activation	bifemsh_r/activation	sar_r/activation	add_long_r/activation	add_brev_r/activation	add_mag1_r/activation	add_mag2_r/activation	add_mag3_r/activation	tfl_r/activation	pect_r/activation	grac_r/activation	glut_max1_r/activation	glut_max2_r/activation	glut_max3_r/activation	iliacus_r/activation	psoas_r/activation	quad_fem_r/activation	gem_r/activation	peri_r/activation	rect_fem_r/activation	vas_med_r/activation	vas_int_r/activation	vas_lat_r/activation	med_gas_r/activation	lat_gas_r/activation	soleus_r/activation	tib_post_r/activation	flex_dig_r/activation	flex_hal_r/activation	tib_ant_r/activation	per_brev_r/activation	per_long_r/activation	per_tert_r/activation	ext_dig_r/activation	ext_hal_r/activation	ercspn_r/activation	intobl_r/activation	extobl_r/activation	
          0.56567050	         -2.92165343	          0.46615333	         -6.92770378	          0.70708812	          0.85874189	          0.00264511	         32.84406781	         -0.31435208	         -2.27803203	        -14.87727343	         -1.20926721	          8.56139799	        -20.08340490	        -16.69741230	          1.75353461	         -5.60677876	          7.23331202	         17.91012603	          0.04277551	         -5.10938104	          0.15881413	         30.64901879	          0.73394511	          1.58764370	          2.06888807	        -12.74871575	        -13.49320537	         10.48157108	          3.83329259	        -13.48001782	         16.51347554	         17.69528861	         36.44721619	         86.51662706	         86.51662706	          0.05000070	          0.05009940	          0.05942794	          0.05000024	          0.05000038	          0.05942793	          0.18101313	          0.07063666	          0.19968894	          0.11859557	          0.05000132	          0.06414705	          0.10540725	          0.15850726	          0.12428576	          0.08441729	          0.05942861	          0.05000184	          0.16325873	          0.05942815	          0.05942815	          0.06663700	          0.05935555	          0.05828719	          0.22202311	          0.05000091	          0.05624511	          0.05000002	          0.05000005	          0.05000005	          0.05000004	          0.09978138	          0.09978133	          0.07063339	          0.05942785	          0.05942823	          0.07307639	          0.35032975	          0.19654100	          0.14095884	          0.05000123	          0.36778699	          0.10793677	          0.05000008	          0.11865111	          0.11921909	          0.12038952	          0.06254465	          0.05695561	          0.15929594	          0.11764585	          0.08253204	          0.05000349	          0.05000040	          0.05000025	          0.05000010	          0.07063464	          0.05000107	          0.05002266	          0.05000594	          0.05001006	          0.05007931	          0.16808025	          0.05000092	          0.05000051	          0.05000959	          0.05001798	          0.05941809	          0.34448296	          0.57237739	          0.05000044	          0.05000057	          0.05000061	          0.26369771	          0.07311976	          0.08175829	          0.10563208	          0.15123618	          0.21293786	          0.05000008	          0.13417023	          0.13595431	          0.15614839	          0.17274188	          0.43360725	          0.34609616	          0.33916449	          0.34282475	          0.05000009	          0.05000001	          0.05000012	          0.05000025	
          0.57698391	         -2.90620225	          0.40724997	         -7.07026457	          0.72505533	          0.85784403	          0.00238203	         32.42391533	         -0.02965772	         -2.12112614	        -14.96654697	         -1.35195578	          8.41673612	        -20.67447701	        -18.00581378	          0.84426990	         -7.87987652	          6.92252036	         18.38648214	         -0.06257902	         -5.82433328	          0.19753429	         31.74361122	          0.97451672	          1.41606981	          2.13861706	        -13.99815015	        -13.47231450	         10.38250095	          3.52747966	        -13.52037152	         16.84634407	         17.76586149	         37.24969058	         86.51662706	         86.51662706	          0.05000113	          0.05000070	          0.05000014	          0.05942788	          0.05942780	          0.05000059	          0.15229658	          0.05943063	          0.16800960	          0.09978118	          0.05000065	          0.11859804	          0.26347421	          0.31896543	          0.17822636	          0.08439304	          0.05000098	          0.08396104	          0.13735896	          0.05000036	          0.05000030	          0.05606554	          0.08395182	          0.08395180	          0.49623280	          0.19912243	          0.11338262	          0.07063372	          0.17175609	          0.16434081	          0.15298408	          0.08395171	          0.08395168	          0.05942786	          0.05000005	          0.05000041	          0.06148343	          0.50679348	          0.16536107	          0.11859664	          0.20722351	          0.51817331	          0.36054217	          0.05000001	          0.09982789	          0.10030576	          0.10129053	          0.05262249	          0.05000022	          0.13402472	          0.09898217	          0.06943953	          0.05000339	          0.05000086	          0.05136664	          0.05134702	          0.05942905	          0.12087669	          0.19644767	          0.13717875	          0.05000257	          0.05000481	          0.14141547	          0.07064811	          0.06609653	          0.05000099	          0.05000062	          0.05000042	          0.28983299	          0.48157346	          0.05000039	          0.08395073	          0.07328618	          0.22186379	          0.06151990	          0.06878802	          0.08887506	          0.12724355	          0.17915666	          0.05000000	          0.11288500	          0.11438608	          0.13137648	          0.35678298	          0.36482101	          0.29999678	          0.62328965	          0.49795929	          0.28481329	          0.05000000	          0.09308949	          0.08821050	
          0.58829732	         -2.88506503	          0.37189509	         -7.18631383	          0.74318938	          0.85646949	          0.00209873	         31.85233912	          0.26690674	         -1.90375357	        -14.86677469	         -1.47676933	          8.26175832	        -21.51811968	        -19.71998910	          0.45375142	         -9.90264796	          6.60632503	         18.80263348	         -0.04856145	         -6.25004609	          0.22022073	         31.77910131	          1.21972859	          1.21468214	          2.19458715	        -15.22675745	        -13.47052357	         10.38016561	          3.16034498	        -13.58152846	         17.10719711	         17.80696654	         38.07869336	         86.51662706	         86.51662706	          0.05000002	          0.05000004	          0.13874841	          0.05000007	          0.05000007	          0.05000011	          0.12813574	          0.05000243	          0.14135598	          0.08395162	          0.05942923	          0.09978327	          0.22167580	          0.28723779	          0.23672930	          0.13247534	          0.05000030	          0.07064181	          0.11556931	          0.05000041	          0.13042170	          0.14256938	          0.07063343	          0.07063341	          0.47231464	          0.16753303	          0.09539583	          0.05942815	          0.27476783	          0.26093925	          0.23950378	          0.07063333	          0.07063330	          0.05000002	          0.09666463	          0.05942798	          0.05400363	          0.61826457	          0.13912763	          0.09978208	          0.42567697	          0.50498536	          0.30334804	          0.05000000	          0.08399085	          0.08439291	          0.08522147	          0.05942850	          0.07063323	          0.11276260	          0.08327936	          0.05842361	          0.06123797	          0.05942843	          0.07375296	          0.05000013	          0.05000112	          0.16671806	          0.45070343	          0.30598676	          0.16779665	          0.14095768	          0.11898090	          0.05944098	          0.06382154	          0.07059609	          0.07063711	          0.14095617	          0.24385288	          0.42041060	          0.12509426	          0.07063359	          0.06165985	          0.18666655	          0.07063305	          0.07063270	          0.07554494	          0.10705718	          0.15073462	          0.05000001	          0.09497654	          0.09623952	          0.11053448	          0.50572455	          0.35766493	          0.29841517	          0.64531766	          0.56274193	          0.30165870	          0.06648863	          0.07832150	          0.08395173	
          0.59961073	         -2.86009908	          0.35814831	         -7.27159583	          0.76132006	          0.85470905	          0.00183768	         31.03048468	          0.52439447	         -1.62000281	        -14.55916786	         -1.57532977	          8.09843825	        -22.29161124	        -21.86678372	          0.65353358	        -11.51066573	          6.23831445	         19.12687237	         -0.24089762	         -6.23095152	          0.40123493	         30.16824734	          1.45742702	          0.98407168	          2.23585276	        -16.39329869	        -13.49504163	         10.50348579	          2.75439306	        -13.65186502	         17.29759477	         17.79106913	         38.92139207	         86.51662706	         86.51662706	          0.27828567	          0.35201592	          0.46845649	          0.44596542	          0.24633272	          0.38822731	          0.10780785	          0.09162981	          0.11893080	          0.07063346	          0.05000133	          0.08395332	          0.18650842	          0.24166953	          0.21578918	          0.15579885	          0.05000016	          0.05943529	          0.09723594	          0.24272398	          0.20811986	          0.17705568	          0.05942791	          0.05942790	          0.39738503	          0.14095513	          0.29100518	          0.05000027	          0.27994645	          0.28620842	          0.26558415	          0.05942782	          0.05942781	          0.05005579	          0.09996743	          0.05000025	          0.05000011	          0.59751358	          0.11705597	          0.08395231	          0.38383878	          0.50487266	          0.37118393	          0.05732853	          0.07066635	          0.07100452	          0.20009346	          0.05000091	          0.05942775	          0.24498750	          0.07063459	          0.05000137	          0.05152522	          0.05000055	          0.06205259	          0.05000011	          0.05942876	          0.14026937	          0.37920231	          0.25744399	          0.14117693	          0.11859573	          0.18050206	          0.05001156	          0.05369675	          0.05939684	          0.05943114	          0.11859445	          0.20516728	          0.42318202	          0.10524888	          0.05942812	          0.05187796	          0.15705313	          0.05942797	          0.05942798	          0.06779954	          0.09007326	          0.12682156	          0.05000001	          0.07990913	          0.08097180	          0.09299893	          0.42906421	          0.33241559	          0.25301912	          0.57311520	          0.75074014	          0.25380258	          0.10840314	          0.06589631	          0.07063334	
